<?xml version="1.0" standalone="no"?>
<!DOCTYPE svg PUBLIC "-//W3C//DTD SVG 20010904//EN"
 "http://www.w3.org/TR/2001/REC-SVG-20010904/DTD/svg10.dtd">
<svg version="1.0" xmlns="http://www.w3.org/2000/svg"
 width="982.000000pt" height="864.000000pt" viewBox="0 0 982.000000 864.000000"
 preserveAspectRatio="xMidYMid meet">

<g transform="translate(0.000000,864.000000) scale(0.100000,-0.100000)"
fill="#000000" stroke="none">
<path d="M4667 6430 c-115 -29 -177 -110 -177 -227 1 -68 15 -112 61 -190 42
-70 198 -233 222 -233 44 0 206 185 258 295 67 139 20 287 -106 341 -47 20
-201 28 -258 14z m244 -102 c51 -28 73 -75 67 -144 -6 -66 -49 -141 -138 -237
l-66 -70 -46 49 c-73 78 -96 108 -128 169 -65 123 -23 230 100 256 59 13 169
1 211 -23z"/>
<path d="M4696 6240 c-40 -36 -52 -76 -36 -123 16 -50 52 -79 102 -84 53 -5
85 11 116 57 34 50 26 104 -22 147 -49 46 -110 46 -160 3z m114 -69 c23 -45
-30 -81 -62 -41 -13 17 -15 26 -8 41 14 25 56 25 70 0z"/>
<path d="M3990 6275 l0 -45 40 0 40 0 0 45 0 45 -40 0 -40 0 0 -45z"/>
<path d="M4160 6275 l0 -45 40 0 40 0 0 45 0 45 -40 0 -40 0 0 -45z"/>
<path d="M4320 6275 l0 -45 40 0 40 0 0 45 0 45 -40 0 -40 0 0 -45z"/>
<path d="M5150 6275 l0 -45 40 0 40 0 0 45 0 45 -40 0 -40 0 0 -45z"/>
<path d="M5310 6275 l0 -45 40 0 40 0 0 45 0 45 -40 0 -40 0 0 -45z"/>
<path d="M5480 6275 l0 -45 40 0 40 0 0 45 0 45 -40 0 -40 0 0 -45z"/>
<path d="M3990 6110 l0 -40 40 0 40 0 0 40 0 40 -40 0 -40 0 0 -40z"/>
<path d="M5480 6110 l0 -40 40 0 40 0 0 40 0 40 -40 0 -40 0 0 -40z"/>
<path d="M3990 5945 l0 -45 40 0 40 0 0 45 0 45 -40 0 -40 0 0 -45z"/>
<path d="M5480 5945 l0 -45 40 0 40 0 0 45 0 45 -40 0 -40 0 0 -45z"/>
<path d="M3990 5780 l0 -40 40 0 40 0 0 40 0 40 -40 0 -40 0 0 -40z"/>
<path d="M5480 5780 l0 -40 40 0 40 0 0 40 0 40 -40 0 -40 0 0 -40z"/>
<path d="M3924 5630 c-71 -25 -121 -59 -180 -122 -103 -109 -124 -180 -124
-421 l0 -179 -25 -20 c-52 -41 -55 -57 -55 -333 0 -235 2 -259 20 -295 23 -45
50 -66 101 -80 31 -9 38 -16 48 -52 31 -106 99 -160 200 -160 33 0 71 7 89 16
46 24 100 93 110 140 l8 41 514 0 514 0 8 -41 c10 -46 64 -116 110 -140 16 -8
55 -15 88 -15 102 -1 176 57 203 158 l11 41 165 4 c190 3 218 13 258 84 l23
39 -3 675 -2 675 -1015 2 c-957 1 -1018 1 -1066 -17z m2004 -302 l2 -248 -972
0 c-595 0 -979 -4 -988 -10 -10 -6 -17 -32 -20 -80 -3 -39 -8 -70 -12 -70 -5
0 -60 0 -123 0 l-115 0 0 163 c0 182 11 239 62 319 56 89 152 152 256 167 31
5 473 8 982 7 l925 -1 3 -247z m2 -373 l0 -35 -940 0 c-517 0 -943 0 -947 0
-9 -1 -16 47 -10 63 3 9 237 11 951 9 l946 -2 0 -35z m0 -384 l0 -260 -24 -28
-24 -28 -162 -3 -161 -4 -52 55 c-43 44 -62 56 -102 65 -57 12 -122 3 -159
-21 -14 -9 -39 -35 -57 -57 l-32 -40 -383 0 c-210 0 -389 3 -398 6 -14 5 -16
36 -16 238 0 167 -3 235 -12 244 -17 17 -374 17 -385 0 -4 -7 -10 -91 -13
-186 l-5 -174 -48 -4 c-64 -5 -112 -29 -145 -73 -15 -20 -31 -39 -35 -42 -16
-12 -58 4 -77 29 -19 23 -20 41 -20 265 0 210 2 243 17 259 15 17 64 18 1155
18 l1138 0 0 -259z m-1820 87 c2 -95 0 -401 -2 -404 -2 -2 -20 19 -41 47 l-37
50 0 153 c0 84 3 156 7 159 12 12 73 8 73 -5z m165 -198 l0 -205 -35 0 -35 0
-3 195 c-1 107 0 200 3 208 3 8 17 12 37 10 l33 -3 0 -205z m-299 -186 c51
-34 68 -107 39 -164 -22 -43 -53 -60 -108 -60 -42 0 -54 5 -83 34 -30 30 -34
40 -34 86 0 47 4 56 36 86 29 28 43 34 80 34 25 0 56 -7 70 -16z m1460 -18
c30 -30 34 -40 34 -86 0 -46 -4 -56 -34 -86 -28 -28 -42 -34 -76 -34 -23 0
-54 7 -70 16 -107 64 -62 223 64 224 42 0 53 -5 82 -34z"/>
<path d="M3973 5474 c-59 -21 -132 -89 -159 -149 -26 -54 -32 -133 -12 -153 9
-9 83 -12 273 -12 190 0 264 3 273 12 17 17 17 289 0 306 -18 18 -321 15 -375
-4z m307 -149 l0 -85 -198 0 c-109 0 -201 3 -205 6 -10 11 13 58 46 93 55 58
96 71 235 71 l122 0 0 -85z"/>
<path d="M4509 5475 c-46 -25 -59 -57 -59 -146 0 -86 13 -123 54 -150 14 -9
60 -15 136 -17 96 -2 121 0 150 15 52 27 72 73 68 160 -4 78 -23 117 -69 140
-35 18 -246 16 -280 -2z m255 -87 c20 -28 21 -98 2 -124 -12 -16 -29 -20 -98
-22 -46 -2 -95 1 -110 7 -26 10 -28 14 -28 74 0 36 5 68 12 75 8 8 47 12 109
12 90 0 99 -2 113 -22z"/>
<path d="M4982 5456 c-36 -34 -37 -36 -40 -118 -3 -70 0 -88 18 -116 32 -52
75 -65 208 -60 l114 3 34 37 c33 37 34 40 34 120 0 65 -4 89 -19 112 -32 49
-55 55 -189 56 l-122 0 -38 -34z m276 -58 c14 -14 16 -116 2 -138 -7 -12 -31
-15 -110 -15 -117 0 -130 8 -130 83 0 78 6 82 123 82 67 0 107 -4 115 -12z"/>
<path d="M5499 5475 c-46 -25 -59 -57 -59 -146 0 -86 13 -123 54 -150 14 -9
60 -15 136 -17 96 -2 121 0 150 15 52 27 72 73 68 160 -4 78 -23 117 -69 140
-35 18 -246 16 -280 -2z m255 -87 c20 -28 21 -98 2 -124 -12 -16 -29 -20 -98
-22 -46 -2 -95 1 -110 7 -26 10 -28 14 -28 74 0 36 5 68 12 75 8 8 47 12 109
12 90 0 99 -2 113 -22z"/>
<path d="M3795 4735 c-51 -18 -110 -81 -124 -131 -14 -50 -14 -140 -1 -165 10
-17 22 -19 113 -19 67 0 107 4 115 12 8 8 12 57 12 153 0 96 -4 145 -12 153
-16 16 -53 15 -103 -3z m35 -155 l0 -80 -40 0 c-49 0 -58 15 -41 70 9 31 59
90 77 90 2 0 4 -36 4 -80z"/>
<path d="M4518 4739 c-47 -18 -68 -66 -68 -153 0 -141 30 -166 202 -166 96 0
118 3 146 20 42 26 62 73 62 145 0 72 -20 119 -62 145 -28 17 -49 20 -143 19
-60 0 -122 -5 -137 -10z m246 -91 c9 -12 16 -41 16 -63 0 -22 -7 -51 -16 -63
-14 -20 -23 -22 -113 -22 -62 0 -101 4 -109 12 -7 7 -12 39 -12 75 0 78 6 82
127 83 84 0 93 -2 107 -22z"/>
<path d="M5003 4731 c-46 -29 -63 -68 -63 -149 0 -55 5 -76 23 -103 34 -51 58
-59 185 -59 170 0 202 26 202 169 0 79 -1 83 -34 119 l-34 37 -124 3 c-109 2
-127 0 -155 -17z m248 -71 c16 -9 19 -22 19 -75 0 -80 -7 -85 -129 -85 -109 0
-121 8 -121 82 0 78 14 88 122 88 49 0 98 -5 109 -10z"/>
<path d="M5503 4735 c-46 -20 -63 -60 -63 -150 0 -140 31 -165 202 -165 96 0
118 3 146 20 42 26 62 73 62 145 0 72 -20 119 -62 145 -28 17 -50 20 -143 20
-71 -1 -121 -6 -142 -15z m251 -87 c9 -12 16 -41 16 -63 0 -22 -7 -51 -16 -63
-14 -20 -23 -22 -113 -22 -62 0 -101 4 -109 12 -7 7 -12 39 -12 75 0 78 6 82
127 83 84 0 93 -2 107 -22z"/>
<path d="M5255 3495 c-30 -29 -32 -64 -5 -93 43 -46 130 -16 130 43 0 33 -42
75 -75 75 -14 0 -37 -11 -50 -25z"/>
<path d="M6055 3495 c-30 -29 -32 -64 -5 -93 43 -46 130 -16 130 43 0 33 -42
75 -75 75 -14 0 -37 -11 -50 -25z"/>
<path d="M800 3160 l0 -340 75 0 75 0 0 155 0 156 96 -111 c53 -60 100 -110
104 -110 5 0 51 49 102 109 l93 109 3 -154 3 -154 74 0 75 0 0 340 c0 187 -2
340 -4 340 -2 0 -80 -85 -172 -190 -92 -104 -171 -190 -175 -190 -3 0 -82 86
-174 190 -92 105 -170 190 -171 190 -2 0 -4 -153 -4 -340z"/>
<path d="M7950 3193 c-89 -169 -171 -323 -182 -340 l-20 -33 81 0 81 0 25 50
25 50 158 0 159 0 23 -50 23 -50 79 0 78 0 -29 58 c-59 116 -322 607 -330 615
-4 4 -81 -131 -171 -300z m210 -63 c22 -44 40 -82 40 -85 0 -3 -36 -5 -80 -5
-44 0 -80 4 -80 9 0 12 70 161 75 161 3 0 23 -36 45 -80z"/>
<path d="M8580 3155 l0 -335 70 0 70 0 0 335 0 335 -70 0 -70 0 0 -335z"/>
<path d="M4674 3149 c90 -182 167 -331 171 -331 5 0 82 149 171 331 l162 331
-78 0 -79 0 -88 -182 -88 -181 -88 181 -87 182 -79 0 -80 0 163 -331z"/>
<path d="M2330 3395 l0 -65 -30 0 -30 0 0 -60 0 -60 30 0 30 0 0 -165 0 -165
28 -32 c28 -30 33 -32 115 -36 l87 -5 0 55 0 54 -42 10 c-52 11 -56 21 -57
172 l-1 112 50 0 50 0 0 60 0 60 -50 0 -50 0 0 65 0 65 -65 0 -65 0 0 -65z"/>
<path d="M3350 3395 l0 -65 -30 0 -30 0 0 -60 0 -60 30 0 30 0 1 -147 c0 -87
5 -162 12 -183 17 -48 63 -70 150 -70 l67 0 0 55 c0 51 -2 55 -23 55 -12 0
-33 7 -45 16 -21 14 -22 22 -22 145 l0 129 50 0 50 0 0 60 0 60 -50 0 -50 0 0
65 0 65 -70 0 -70 0 0 -65z"/>
<path d="M1765 3311 c-153 -71 -192 -298 -74 -426 71 -76 192 -98 283 -50 44
23 46 24 46 5 0 -18 7 -20 70 -20 l70 0 0 250 0 250 -70 0 c-62 0 -70 -2 -70
-19 0 -17 -3 -17 -47 5 -59 30 -149 32 -208 5z m203 -121 c58 -36 79 -122 44
-190 -32 -65 -125 -89 -189 -50 -46 28 -65 62 -65 119 0 56 21 100 61 124 37
23 109 21 149 -3z"/>
<path d="M2800 3315 c-103 -47 -150 -123 -150 -245 1 -148 76 -241 210 -257
64 -7 110 2 154 32 l36 24 0 -24 c0 -24 3 -25 65 -25 l65 0 0 250 0 250 -65 0
c-59 0 -65 -2 -65 -21 0 -21 0 -21 -36 2 -48 29 -163 37 -214 14z m213 -144
c30 -29 32 -36 32 -101 0 -65 -2 -72 -32 -101 -40 -40 -110 -50 -162 -22 -68
36 -92 138 -48 204 31 47 62 61 125 56 44 -3 59 -9 85 -36z"/>
<path d="M5600 3311 c-89 -32 -126 -98 -101 -181 19 -64 71 -93 213 -120 72
-14 87 -31 57 -61 -19 -19 -29 -21 -78 -16 -32 2 -76 14 -98 26 l-41 21 -36
-48 -35 -47 37 -23 c95 -58 233 -69 319 -27 65 33 87 74 81 151 -7 86 -44 114
-185 142 -59 12 -89 23 -97 35 -28 45 74 62 154 26 l45 -20 32 38 c18 21 33
43 33 50 0 6 -25 23 -56 38 -76 36 -170 42 -244 16z"/>
<path d="M6466 3314 c-63 -20 -147 -102 -164 -160 -53 -179 72 -344 258 -344
276 1 371 349 132 483 -65 36 -152 45 -226 21z m149 -118 c88 -37 105 -165 31
-233 -91 -84 -240 -4 -223 119 7 49 29 83 70 108 38 24 75 25 122 6z"/>
<path d="M7127 3306 c-44 -22 -47 -22 -47 -5 0 17 -8 19 -70 19 l-70 0 0 -250
0 -250 70 0 70 0 0 160 c0 98 4 169 11 184 18 38 71 60 114 46 61 -20 65 -35
65 -222 l0 -168 70 0 70 0 0 168 c-1 235 -13 275 -100 320 -59 29 -123 29
-183 -2z"/>
<path d="M3690 3152 c0 -240 22 -298 126 -332 52 -17 138 -8 174 19 30 21 30
21 30 1 0 -18 6 -20 70 -20 l70 0 0 250 0 250 -70 0 -70 0 0 -159 c0 -88 -4
-171 -9 -184 -12 -32 -70 -59 -110 -51 -17 4 -40 18 -51 32 -18 22 -20 41 -20
193 l0 169 -70 0 -70 0 0 -168z"/>
<path d="M5240 3070 l0 -250 65 0 65 0 0 250 0 250 -65 0 -65 0 0 -250z"/>
<path d="M6040 3070 l0 -250 65 0 65 0 0 250 0 250 -65 0 -65 0 0 -250z"/>
<path d="M1638 2554 c-17 -9 -32 -28 -39 -53 -20 -68 28 -131 101 -131 20 0
72 39 53 40 -6 0 -15 -4 -18 -10 -3 -5 -24 -10 -45 -10 -45 0 -80 35 -80 80 0
40 35 80 71 80 17 0 39 -5 50 -10 12 -7 19 -7 19 -1 0 30 -69 39 -112 15z"/>
<path d="M1984 2560 c-56 -22 -72 -108 -30 -157 20 -23 32 -28 71 -28 39 0 51
5 71 28 70 81 -13 197 -112 157z m81 -16 c8 -4 23 -20 31 -36 12 -24 13 -36 4
-64 -13 -39 -35 -54 -79 -54 -44 0 -71 31 -71 80 0 64 53 98 115 74z"/>
<path d="M4699 2559 c-48 -18 -68 -91 -39 -144 13 -23 56 -45 90 -45 20 0 72
39 53 40 -6 0 -15 -4 -18 -10 -10 -16 -71 -11 -94 8 -57 46 -25 142 48 142 20
0 42 -5 49 -12 9 -9 12 -9 12 0 0 27 -53 38 -101 21z"/>
<path d="M5774 2560 c-56 -22 -72 -108 -30 -157 20 -23 32 -28 71 -28 39 0 51
5 71 28 70 81 -13 197 -112 157z m86 -20 c27 -14 41 -64 28 -100 -5 -17 -18
-35 -28 -40 -26 -14 -73 -12 -93 3 -38 28 -38 106 0 135 20 14 67 16 93 2z"/>
<path d="M2314 2480 c1 -80 2 -85 28 -99 39 -22 80 -6 95 39 15 43 17 127 3
135 -6 4 -10 -16 -10 -54 0 -83 -12 -111 -49 -111 -41 0 -54 22 -62 103 l-7
72 2 -85z"/>
<path d="M2640 2470 c0 -109 18 -121 22 -14 l3 75 53 -75 c71 -103 82 -101 82
14 0 112 -18 120 -22 10 l-3 -81 -54 81 c-30 44 -60 80 -68 80 -10 0 -13 -22
-13 -90z"/>
<path d="M3002 2553 l37 -4 4 -87 3 -87 2 87 2 87 38 4 c20 2 1 4 -43 4 -44 0
-63 -2 -43 -4z"/>
<path d="M3728 2553 l32 -4 0 -85 c0 -49 4 -84 10 -84 6 0 10 35 10 84 l0 85
38 4 c20 2 1 4 -43 4 -44 0 -65 -2 -47 -4z"/>
<path d="M4020 2470 c0 -53 4 -90 10 -90 6 0 10 20 10 45 0 33 4 45 15 45 8 0
26 -20 41 -45 14 -25 30 -45 36 -45 5 0 -1 19 -15 43 l-25 43 21 9 c25 11 34
49 17 71 -8 9 -31 14 -61 14 l-49 0 0 -90z m84 74 c19 -7 21 -35 4 -52 -7 -7
-25 -12 -40 -12 -25 0 -28 3 -28 35 0 30 3 35 24 35 13 0 31 -3 40 -6z"/>
<path d="M4345 2475 c-38 -85 -43 -119 -11 -70 14 21 24 25 61 25 39 0 47 -4
57 -25 10 -22 35 -38 26 -17 -50 122 -74 172 -83 172 -7 0 -29 -38 -50 -85z
m84 -22 c1 -9 -13 -13 -39 -13 -22 0 -40 2 -40 4 0 2 10 26 21 53 l21 48 18
-40 c10 -22 19 -46 19 -52z"/>
<path d="M4990 2470 c0 -53 4 -90 10 -90 6 0 10 21 10 47 l0 47 48 -47 c26
-26 52 -47 57 -47 5 0 -12 22 -38 48 l-48 49 45 41 c25 23 41 42 34 42 -6 0
-29 -17 -52 -37 l-41 -38 -3 38 c-6 73 -22 35 -22 -53z"/>
<path d="M6100 2470 c0 -53 4 -90 10 -90 6 0 10 20 10 45 0 44 1 45 33 45 54
0 77 31 51 69 -12 16 -26 21 -60 21 l-44 0 0 -90z m91 64 c19 -23 -1 -48 -40
-52 -30 -3 -31 -2 -31 32 0 33 2 36 29 36 16 0 34 -7 42 -16z"/>
<path d="M6408 2553 l32 -4 0 -85 c0 -49 4 -84 10 -84 6 0 10 35 10 84 l0 85
33 4 c17 2 -2 4 -43 4 -41 0 -60 -2 -42 -4z"/>
<path d="M6700 2470 c0 -53 4 -90 10 -90 6 0 10 37 10 90 0 53 -4 90 -10 90
-6 0 -10 -37 -10 -90z"/>
<path d="M6910 2471 c0 -110 18 -122 22 -15 l3 76 31 -73 c18 -40 36 -75 40
-76 5 -2 23 30 39 70 l30 72 3 -72 c4 -105 22 -91 22 17 0 112 -14 117 -54 23
-16 -38 -32 -71 -35 -75 -4 -4 -21 25 -38 65 -17 40 -38 73 -47 75 -14 3 -16
-10 -16 -87z"/>
<path d="M7300 2470 c0 -51 3 -91 6 -87 3 3 6 42 6 87 0 45 -3 84 -6 87 -3 4
-6 -36 -6 -87z"/>
<path d="M7543 2551 l58 -6 -41 -59 c-23 -33 -49 -70 -57 -83 l-15 -23 73 2
c70 2 71 2 17 5 -32 2 -58 6 -58 8 0 3 22 35 48 72 26 38 51 74 56 81 5 9 -10
12 -66 10 l-73 -1 58 -6z"/>
<path d="M7810 2470 l0 -90 63 2 62 2 -58 3 -58 4 3 37 c3 37 3 37 53 41 l50
5 -50 5 c-48 6 -50 8 -53 38 -3 32 -3 32 50 36 l53 3 -57 2 -58 2 0 -90z"/>
<path d="M3290 2391 c0 -6 5 -13 10 -16 6 -3 10 1 10 9 0 9 -4 16 -10 16 -5 0
-10 -4 -10 -9z"/>
<path d="M5300 2384 c0 -8 5 -12 10 -9 6 3 10 10 10 16 0 5 -4 9 -10 9 -5 0
-10 -7 -10 -16z"/>
</g>
</svg>
